<?xml version="1.0" encoding="utf-8"?>
<!-- Generator: Adobe Illustrator 18.1.1, SVG Export Plug-In . SVG Version: 6.00 Build 0)  -->
<svg version="1.1" id="Layer_1" xmlns="http://www.w3.org/2000/svg" xmlns:xlink="http://www.w3.org/1999/xlink" x="0px" y="0px"
	 width="105.6px" height="151.8px" viewBox="-252 321.2 105.6 151.8" enable-background="new -252 321.2 105.6 151.8"
	 xml:space="preserve">
<g>
	<g>
		<path d="M-235.3,469.7c0.7,0.5,1.6,0.9,2.5,1.2c1,0.3,2,0.5,3.1,0.5c1.9,0,3.5-0.5,4.6-1.5c1.1-1,1.7-2.3,1.7-4
			c0-1.5-0.4-2.7-1.2-3.6c-0.8-0.9-2.1-1.8-4-2.5c-2-0.7-3.6-1.7-4.8-2.8c-1.2-1.1-1.8-2.6-1.8-4.4c0-1,0.2-1.9,0.6-2.7
			c0.4-0.8,0.9-1.5,1.6-2.1c0.7-0.6,1.5-1,2.4-1.4c0.9-0.3,1.9-0.5,3-0.5c1.2,0,2.3,0.1,3.2,0.4c0.9,0.3,1.5,0.5,1.9,0.8l-0.7,1.6
			c-0.4-0.3-0.9-0.5-1.7-0.8c-0.8-0.3-1.7-0.4-2.8-0.4c-1,0-1.9,0.1-2.6,0.4c-0.7,0.3-1.3,0.7-1.7,1.2c-0.4,0.5-0.7,1-0.9,1.5
			c-0.2,0.6-0.3,1.1-0.3,1.6c0,1.5,0.4,2.6,1.3,3.5c0.9,0.9,2.2,1.7,4.1,2.4c1.1,0.4,2,0.9,2.8,1.4c0.8,0.5,1.5,1,2,1.6
			c0.5,0.6,1,1.3,1.2,2c0.3,0.8,0.4,1.6,0.4,2.6c0,1-0.2,1.9-0.5,2.8c-0.3,0.9-0.9,1.6-1.5,2.3c-0.7,0.7-1.6,1.2-2.6,1.6
			c-1,0.4-2.2,0.6-3.6,0.6c-0.5,0-1.1,0-1.7-0.1c-0.6-0.1-1.2-0.2-1.7-0.4c-0.5-0.2-1.1-0.3-1.5-0.5c-0.5-0.2-0.9-0.4-1.2-0.7
			L-235.3,469.7z"/>
		<path d="M-218.2,453.9l3.1,10.6c0.3,1.1,0.6,2.1,0.9,3.1c0.3,1,0.5,1.9,0.7,2.8h0.1c0.2-0.9,0.5-1.8,0.8-2.8c0.3-1,0.6-2,1-3.1
			l3.7-10.6h1.7l3.5,10.5c0.4,1.1,0.7,2.2,1,3.2c0.3,1,0.6,1.9,0.8,2.8h0.1c0.2-0.9,0.4-1.8,0.7-2.8c0.3-0.9,0.6-2,1-3.2l3.3-10.6
			h1.9l-6.1,18.7h-1.6l-3.5-10.5c-0.4-1.1-0.7-2.2-1.1-3.2c-0.3-1-0.6-2-0.8-3.1h-0.1c-0.3,1.1-0.6,2.2-0.9,3.2
			c-0.3,1-0.7,2.1-1.1,3.2l-3.7,10.4h-1.6l-5.7-18.7H-218.2z"/>
		<path d="M-190.9,448.2c0-0.4,0.1-0.8,0.4-1.1c0.3-0.3,0.7-0.5,1.1-0.5s0.8,0.2,1.1,0.5c0.3,0.3,0.5,0.7,0.5,1.1
			c0,0.4-0.2,0.8-0.5,1.1c-0.3,0.3-0.7,0.4-1.1,0.4c-0.4,0-0.8-0.1-1.1-0.4C-190.7,449-190.9,448.6-190.9,448.2z M-190.2,472.6
			v-18.7h1.8v18.7H-190.2z"/>
		<path d="M-180.9,472.6v-17.2h-2.7v-1.4h2.7v-1.1c0-1.2,0.1-2.3,0.3-3.3c0.2-1,0.6-1.9,1-2.6c0.5-0.7,1.1-1.3,1.9-1.8
			c0.8-0.4,1.7-0.6,2.9-0.6c0.6,0,1.1,0.1,1.6,0.2c0.5,0.1,0.8,0.3,1.1,0.5l-0.6,1.4c-0.3-0.1-0.6-0.2-0.9-0.4
			c-0.4-0.1-0.8-0.2-1.4-0.2c-0.9,0-1.6,0.2-2.1,0.5c-0.5,0.4-0.9,0.9-1.2,1.5c-0.3,0.6-0.5,1.3-0.6,2.1c-0.1,0.8-0.2,1.7-0.2,2.6
			v1.1h8.9v1.4h-8.9v17.2L-180.9,472.6L-180.9,472.6z"/>
		<path d="M-168.9,449.8v4.2h5.2v1.4h-5.2v12.2c0,1.2,0.2,2.2,0.6,2.9c0.4,0.7,1.1,1,2.1,1c0.5,0,0.9,0,1.2-0.1
			c0.3-0.1,0.6-0.1,0.9-0.2l0.2,1.4c-0.6,0.3-1.5,0.4-2.5,0.4c-0.9,0-1.6-0.1-2.1-0.4c-0.6-0.3-1-0.7-1.3-1.2
			c-0.3-0.5-0.5-1.1-0.7-1.8c-0.1-0.7-0.2-1.5-0.2-2.3v-11.9h0.1v-1.4h-0.1v-3.5L-168.9,449.8z"/>
	</g>
	<g>
		<path fill="#F05138" d="M-146.4,350.4c0-1.1,0-2.1,0-3.2c-0.1-2.3-0.2-4.6-0.6-6.9c-0.4-2.3-1.1-4.5-2.2-6.6
			c-1.1-2.1-2.4-4-4.1-5.6c-1.6-1.6-3.5-3-5.6-4.1c-2.1-1.1-4.3-1.8-6.6-2.2c-2.3-0.4-4.6-0.5-6.9-0.6c-1.1,0-2.1,0-3.2,0
			c-1.3,0-2.5,0-3.8,0h-27.9H-219c-1.3,0-2.5,0-3.8,0c-1.1,0-2.1,0-3.2,0c-0.6,0-1.2,0-1.7,0.1c-1.7,0.1-3.5,0.2-5.2,0.5
			c-1.7,0.3-3.4,0.8-5,1.4c-0.5,0.2-1.1,0.5-1.6,0.7c-1.6,0.8-3,1.8-4.3,2.9c-0.4,0.4-0.9,0.8-1.3,1.2c-1.6,1.6-3,3.5-4.1,5.6
			c-1.1,2.1-1.8,4.3-2.2,6.6c-0.4,2.3-0.5,4.6-0.6,6.9c0,1.1,0,2.1,0,3.2c0,1.3,0,2.5,0,3.8v17.2v22.3c0,1.3,0,2.5,0,3.8
			c0,1.1,0,2.1,0,3.2c0.1,2.3,0.2,4.6,0.6,6.9c0.4,2.3,1.1,4.5,2.2,6.6c1.1,2.1,2.4,4,4.1,5.6c1.6,1.6,3.5,3,5.6,4.1
			c2.1,1.1,4.3,1.8,6.6,2.2c2.3,0.4,4.6,0.5,6.9,0.6c1.1,0,2.1,0,3.2,0c1.3,0,2.5,0,3.8,0h39.5c1.3,0,2.5,0,3.8,0c1.1,0,2.1,0,3.2,0
			c2.3-0.1,4.6-0.2,6.9-0.6c2.3-0.4,4.5-1.1,6.6-2.2c2.1-1.1,4-2.4,5.6-4.1c1.6-1.6,3-3.5,4.1-5.6c1.1-2.1,1.8-4.3,2.2-6.6
			c0.4-2.3,0.5-4.6,0.6-6.9c0-1.1,0-2.1,0-3.2c0-1.3,0-2.5,0-3.8v-39.5C-146.4,353-146.4,351.7-146.4,350.4z"/>
		<path fill="#FFFFFF" d="M-168.3,386.4C-168.3,386.4-168.3,386.4-168.3,386.4c0.1-0.4,0.2-0.8,0.3-1.2c4.4-17.5-6.3-38.1-24.4-49
			c7.9,10.8,11.4,23.8,8.3,35.2c-0.3,1-0.6,2-1,2.9c-0.4-0.3-0.9-0.6-1.6-0.9c0,0-18-11.1-37.5-30.8c-0.5-0.5,10.4,15.6,22.8,28.7
			c-5.8-3.3-22.1-15.1-32.4-24.5c1.3,2.1,2.8,4.1,4.4,6.1c8.6,10.9,19.8,24.4,33.2,34.7c-9.4,5.8-22.8,6.2-36.1,0
			c-3.3-1.5-6.4-3.4-9.2-5.5c5.6,9,14.3,16.8,24.8,21.3c12.6,5.4,25.1,5,34.4,0.1l0,0c0,0,0.1,0,0.1-0.1c0.4-0.2,0.8-0.5,1.2-0.7
			c4.5-2.3,13.3-4.6,18,4.6C-161.7,409.5-159.3,397.5-168.3,386.4z"/>
	</g>
</g>
</svg>
